<svg width="17" height="17" viewBox="0 0 17 17" fill="none" xmlns="http://www.w3.org/2000/svg">
<rect x="0.560059" y="0.899994" width="15" height="15" rx="7.5" stroke="white" stroke-opacity="0.5"/>
<path d="M9.03186 6.815V12H7.48186V6.815H9.03186ZM9.21186 5.395C9.21186 5.51833 9.18686 5.635 9.13686 5.745C9.08686 5.85167 9.01852 5.94667 8.93186 6.03C8.84519 6.11 8.74352 6.175 8.62686 6.225C8.51352 6.27167 8.39186 6.295 8.26186 6.295C8.13519 6.295 8.01686 6.27167 7.90686 6.225C7.79686 6.175 7.69852 6.11 7.61186 6.03C7.52852 5.94667 7.46186 5.85167 7.41186 5.745C7.36519 5.635 7.34186 5.51833 7.34186 5.395C7.34186 5.26833 7.36519 5.15 7.41186 5.04C7.46186 4.93 7.52852 4.83333 7.61186 4.75C7.69852 4.66667 7.79686 4.60167 7.90686 4.555C8.01686 4.50833 8.13519 4.485 8.26186 4.485C8.39186 4.485 8.51352 4.50833 8.62686 4.555C8.74352 4.60167 8.84519 4.66667 8.93186 4.75C9.01852 4.83333 9.08686 4.93 9.13686 5.04C9.18686 5.15 9.21186 5.26833 9.21186 5.395Z" fill="white" fill-opacity="0.5"/>
</svg>
