<svg width="41" height="41" viewBox="0 0 41 41" fill="none" xmlns="http://www.w3.org/2000/svg">
<path d="M20.4999 38.2177C30.3183 38.2177 38.2777 30.2583 38.2777 20.4399C38.2777 10.6215 30.3183 2.66211 20.4999 2.66211C10.6816 2.66211 2.72217 10.6215 2.72217 20.4399C2.72217 30.2583 10.6816 38.2177 20.4999 38.2177Z" stroke="#18242E" stroke-width="1.77778" stroke-miterlimit="10"/>
<path d="M20.4999 10.751C15.0777 10.751 10.7222 15.1065 10.7222 20.5288C10.7222 25.4176 14.2777 29.4176 18.9888 30.2176V23.3732H16.4999V20.5288H18.9888V18.3954C18.9888 15.9065 20.4111 14.5732 22.7222 14.5732C23.7888 14.5732 24.9444 14.751 24.9444 14.751V17.151H23.6111C22.3666 17.151 22.0111 17.8621 22.0111 18.6621V20.5288H24.7666L24.3222 23.3732H22.0111V30.2176C26.7222 29.5065 30.2777 25.4176 30.2777 20.5288C30.2777 15.1065 25.9222 10.751 20.4999 10.751Z" fill="#18242E"/>
</svg>
