<svg width="41" height="41" viewBox="0 0 41 41" fill="none" xmlns="http://www.w3.org/2000/svg">
<path d="M20.4999 38.2177C30.3183 38.2177 38.2777 30.2583 38.2777 20.4399C38.2777 10.6215 30.3183 2.66211 20.4999 2.66211C10.6816 2.66211 2.72217 10.6215 2.72217 20.4399C2.72217 30.2583 10.6816 38.2177 20.4999 38.2177Z" stroke="#18242E" stroke-width="1.77778" stroke-miterlimit="10"/>
<path d="M20.4999 12.4399C23.0777 12.4399 23.4333 12.4399 24.4111 12.5288C25.3888 12.5288 25.9222 12.7066 26.1888 12.8843C26.6333 13.0621 26.9888 13.2399 27.3444 13.5954C27.6999 13.951 27.8777 14.3066 28.0555 14.751C28.2333 15.1066 28.3222 15.6399 28.4111 16.5288C28.4999 17.5954 28.4999 17.8621 28.4999 20.4399C28.4999 23.0177 28.4999 23.3732 28.4111 24.351C28.4111 25.3288 28.2333 25.8621 28.0555 26.1288C27.8777 26.5732 27.6999 26.9288 27.3444 27.2843C26.9888 27.6399 26.6333 27.8177 26.1888 27.9954C25.8333 28.1732 25.2999 28.2621 24.4111 28.351C23.3444 28.4399 23.0777 28.4399 20.4999 28.4399C17.9222 28.4399 17.5666 28.4399 16.5888 28.351C15.6111 28.351 15.0777 28.1732 14.8111 27.9954C14.3666 27.8177 14.0111 27.6399 13.6555 27.2843C13.2999 26.9288 13.1222 26.5732 12.9444 26.1288C12.7666 25.7732 12.6777 25.2399 12.5888 24.351C12.4999 23.2843 12.4999 23.0177 12.4999 20.4399C12.4999 17.8621 12.4999 17.5066 12.5888 16.5288C12.5888 15.551 12.7666 15.0177 12.9444 14.751C13.1222 14.3066 13.2999 13.951 13.6555 13.5954C14.0111 13.2399 14.3666 13.0621 14.8111 12.8843C15.1666 12.7066 15.6999 12.6177 16.5888 12.5288C17.5666 12.4399 17.9222 12.4399 20.4999 12.4399ZM20.4999 10.6621C17.8333 10.6621 17.4777 10.6621 16.4999 10.751C15.4333 10.8399 14.7222 10.9288 14.0999 11.1954C13.4777 11.4621 12.9444 11.8177 12.4111 12.351C11.8777 12.8843 11.5222 13.4177 11.2555 14.0399C10.9888 14.6621 10.8111 15.3732 10.8111 16.4399C10.7222 17.5066 10.7222 17.7732 10.7222 20.4399C10.7222 23.1066 10.7222 23.4621 10.8111 24.4399C10.8999 25.5066 10.9888 26.2177 11.2555 26.8399C11.5222 27.4621 11.8777 27.9954 12.4111 28.5288C12.9444 29.0621 13.4777 29.4177 14.0999 29.6843C14.7222 29.951 15.4333 30.1288 16.4999 30.1288C17.5666 30.2177 17.8333 30.2177 20.4999 30.2177C23.1666 30.2177 23.5222 30.2177 24.4999 30.1288C25.5666 30.0399 26.2777 29.951 26.8999 29.6843C27.5222 29.4177 28.0555 29.0621 28.5888 28.5288C29.1222 27.9954 29.4777 27.4621 29.7444 26.8399C30.0111 26.2177 30.1888 25.5066 30.1888 24.4399C30.2777 23.3732 30.2777 23.1066 30.2777 20.4399C30.2777 17.7732 30.2777 17.4177 30.1888 16.4399C30.0999 15.3732 30.0111 14.6621 29.7444 14.0399C29.4777 13.4177 29.1222 12.8843 28.5888 12.351C28.0555 11.8177 27.5222 11.4621 26.8999 11.1954C26.2777 10.9288 25.5666 10.751 24.4999 10.751C23.5222 10.6621 23.1666 10.6621 20.4999 10.6621Z" fill="#18242E"/>
<path d="M20.5 15.4619C17.7444 15.4619 15.5222 17.6841 15.5222 20.4397C15.5222 23.1952 17.7444 25.4175 20.5 25.4175C23.2555 25.4175 25.4778 23.1952 25.4778 20.4397C25.4778 17.6841 23.2555 15.4619 20.5 15.4619ZM20.5 23.7286C18.7222 23.7286 17.2111 22.3064 17.2111 20.4397C17.2111 18.573 18.6333 17.1508 20.5 17.1508C22.3667 17.1508 23.7889 18.573 23.7889 20.4397C23.7889 22.3064 22.2778 23.7286 20.5 23.7286Z" fill="#18242E"/>
<path d="M25.7444 16.3511C26.3826 16.3511 26.9 15.8338 26.9 15.1956C26.9 14.5574 26.3826 14.04 25.7444 14.04C25.1062 14.04 24.5889 14.5574 24.5889 15.1956C24.5889 15.8338 25.1062 16.3511 25.7444 16.3511Z" fill="#18242E"/>
</svg>
