<svg width="41" height="41" viewBox="0 0 41 41" fill="none" xmlns="http://www.w3.org/2000/svg">
<path d="M20.4999 38.2177C30.3183 38.2177 38.2777 30.2583 38.2777 20.4399C38.2777 10.6215 30.3183 2.66211 20.4999 2.66211C10.6816 2.66211 2.72217 10.6215 2.72217 20.4399C2.72217 30.2583 10.6816 38.2177 20.4999 38.2177Z" stroke="#18242E" stroke-width="1.77778" stroke-miterlimit="10"/>
<path d="M29.8333 15.7291C29.5667 14.8402 28.9445 14.2179 28.1445 13.9513C26.6333 13.5068 20.5 13.5068 20.5 13.5068C20.5 13.5068 14.3667 13.5068 12.8556 13.9513C12.0556 14.2179 11.3445 14.8402 11.1667 15.7291C10.7222 17.2402 10.7222 20.4402 10.7222 20.4402C10.7222 20.4402 10.7222 23.6402 11.1667 25.1513C11.4333 26.0402 12.0556 26.6624 12.8556 26.9291C14.3667 27.3735 20.5 27.3735 20.5 27.3735C20.5 27.3735 26.6333 27.3735 28.1445 26.9291C28.9445 26.6624 29.6556 26.0402 29.8333 25.1513C30.2778 23.6402 30.2778 20.4402 30.2778 20.4402C30.2778 20.4402 30.2778 17.2402 29.8333 15.7291ZM18.4556 23.3735V17.5957L23.6111 20.5291L18.4556 23.3735Z" fill="#18242E"/>
</svg>
