<svg width="61" height="76" viewBox="0 0 61 76" fill="none" xmlns="http://www.w3.org/2000/svg">
<path d="M5.30724 63.0584V67.9049L0.623192 63.0584H0.000457764V71.0998H1.67913V66.3074L6.30903 71.0727V71.0998H6.98591V63.0584H5.30724ZM10.8848 63.0313H12.5634V71.0998H10.8848V63.0313ZM19.1698 63.0584L16.0832 71.0186L16.0562 71.1269H17.8431L18.3034 69.9085H21.6608L22.1211 71.1269H23.908L20.8214 63.0855L20.7944 63.0313H19.1698V63.0584ZM20.0363 65.3598L21.0922 68.1756L18.9262 68.2027L20.0363 65.3598ZM32.7075 63.0584V67.9049L28.0235 63.0584H27.4008V71.0998H29.0794V66.3074L33.6823 71.0727L33.7093 71.0998H34.3862V63.0584H32.7075ZM37.8519 63.0584V64.6829H40.397V71.0998H42.0756V64.6829H44.6207V63.0584H37.8519ZM48.1405 63.0313H49.8192V71.0998H48.1405V63.0313ZM58.8353 68.7713C58.3479 69.1774 57.9689 69.394 57.3191 69.394C56.6693 69.394 56.1007 69.1774 55.7216 68.7713C55.3155 68.3652 55.0989 67.7966 55.0989 67.0655C55.0989 66.4157 55.3155 65.8472 55.7216 65.441C56.1278 65.0078 56.6693 64.7912 57.3191 64.7912C57.9689 64.7912 58.3479 65.0078 58.8624 65.4139L58.9165 65.4681L60.0266 64.1956L59.9725 64.1414C59.1873 63.4374 58.4292 63.0584 57.3191 63.0584C56.2361 63.0584 55.2884 63.4374 54.5574 64.2226C53.8264 64.9807 53.4473 65.9555 53.4473 67.0655C53.4473 68.2027 53.8264 69.1774 54.5574 69.9626C55.3155 70.7207 56.2361 71.1269 57.3191 71.1269C58.4292 71.1269 59.1873 70.7749 59.9725 70.0438L60.0266 69.9897L58.9165 68.7171L58.8353 68.7713ZM28.7275 46.8402C28.7545 46.8944 28.7816 46.9756 28.8087 47.0297C28.8358 47.2193 28.8899 47.5713 28.917 47.7066C28.917 47.7337 28.8899 47.7608 28.8628 47.7608L22.1211 48.4377C22.0669 48.4377 22.0128 48.4106 22.0128 48.3564L20.9027 42.1833C20.9027 42.1291 20.9568 42.0749 21.011 42.0749C24.1246 42.454 27.2383 44.4034 28.7275 46.8402ZM29.4856 40.3692C31.1372 40.6941 33.953 42.1562 35.5234 43.7536C35.6588 43.889 35.6317 43.9973 35.6317 44.0515C34.8465 45.9197 32.7617 47.2734 30.5686 47.7066C30.4874 47.7337 30.4061 47.7066 30.3791 47.6254C30.2437 46.6507 29.4856 41.5064 29.3502 40.5046C29.3231 40.3963 29.4043 40.3421 29.4856 40.3692ZM28.3213 44.0785C27.6715 43.4558 26.9405 42.9143 26.1553 42.454C25.7492 42.2103 25.1806 41.8854 24.4766 41.5876C24.2329 41.4793 24.0163 41.3981 23.7727 41.3168L23.0416 41.0732C22.3377 40.8566 21.742 40.7483 21.3629 40.6941C20.7131 40.5858 20.0363 40.5587 19.3864 40.5858C19.224 40.5858 19.1157 40.7212 19.1428 40.8836L20.7402 49.7644C20.7673 49.8997 20.8756 49.981 21.011 49.981H21.038L24.5308 49.629L27.6174 49.3312L29.1065 49.1687C29.1065 49.1687 29.1336 49.1687 29.1336 49.1958L29.269 50.1705C29.296 50.3329 29.4314 50.4412 29.5939 50.4142H29.6209L32.6263 50.1163L36.2003 49.7644L40.6136 49.3312C40.7489 49.3041 40.8302 49.1687 40.776 49.0604C39.8284 46.9756 38.7724 45.324 37.6623 43.9973C37.2833 43.537 36.8772 43.1038 36.4981 42.7518C36.2273 42.4811 35.9295 42.2103 35.6588 41.9937C35.1443 41.5605 34.684 41.2356 34.3321 40.9919C31.4891 39.0967 28.917 38.8259 27.9964 38.7988H27.9693C27.7798 38.7988 27.6444 38.9613 27.6715 39.1237L28.4026 44.1327C28.3484 44.0785 28.3484 44.1056 28.3213 44.0785ZM39.7471 53.7715C39.7471 53.7715 42.2922 52.9051 43.6731 52.499C43.8626 52.4448 43.8085 52.1741 43.6189 52.1741L25.316 53.1759C24.8015 53.2029 24.612 53.0946 24.2871 52.878C23.9351 52.6073 23.8539 52.3907 23.3665 52.4178L20.0904 52.5531C20.0092 52.5531 19.928 52.6344 19.928 52.7156C19.9009 53.8527 20.4965 58.2119 23.2041 58.3743H23.9622C24.8286 60.2967 26.5885 60.053 27.0759 60.0259C28.7004 59.8906 37.175 57.183 38.0143 56.5603C38.8537 55.9376 39.7471 53.7715 39.7471 53.7715Z" fill="black"/>
<path d="M50.7668 21.7145C50.4419 21.8769 49.6838 21.9852 48.5196 21.9852C48.5196 21.9852 48.4925 21.9852 48.4925 21.9581C47.8156 21.9581 47.0034 21.904 46.0286 21.8228C45.3518 21.7415 44.6478 21.6332 43.9709 21.5249L44.702 19.386C44.7832 19.0611 44.9186 18.5196 44.9456 18.4654C44.9727 18.33 44.9998 18.2217 45.0269 18.0864C45.0539 18.0051 45.0539 17.8968 45.081 17.8156C45.081 17.8156 45.1081 17.7885 45.1081 17.8156C48.7362 19.7109 50.4419 21.1188 50.7668 21.7145ZM33.7906 8.44752C31.056 9.20563 28.9711 9.85544 28.2943 10.072C27.5632 10.3157 25.0452 11.128 22.0128 12.2652C21.9586 12.2922 21.9045 12.3193 21.8503 12.3193C21.6879 12.3735 21.5254 12.4276 21.39 12.5088C20.2799 12.942 19.2782 13.3482 18.3847 13.7272C18.5742 8.258 22.3106 3.87178 26.8593 3.87178C29.8105 3.87178 32.3826 5.68583 33.8989 8.42045C33.8718 8.42045 33.8447 8.44752 33.7906 8.44752ZM15.1356 12.3193C15.1356 12.3735 15.1085 12.4005 15.1085 12.4547C13.3486 11.5612 12.0219 10.7489 11.0743 10.0991H11.0472C10.1267 9.44931 9.58516 8.93488 9.4227 8.60997V8.5829C10.0454 8.28507 12.2385 8.12262 16.2728 8.6912V8.71828C15.7583 9.85544 15.3793 11.0738 15.1356 12.3193ZM16.8684 23.8263C16.8955 23.8263 16.8955 23.8534 16.9226 23.8805L21.9315 40.9651L23.2853 41.29L18.9532 26.3173C18.872 26.0736 19.1969 25.7758 19.5218 26.0465C20.5778 26.9942 21.742 27.9147 23.0146 28.5645L24.6932 41.9939L26.0199 42.5896L24.2871 29.2414C24.2871 29.2144 24.3142 29.2144 24.3142 29.2144L24.9098 29.5393C26.1282 30.3515 26.9946 31.7053 27.3195 33.1132L27.3737 33.3298C27.4549 33.6818 27.7798 33.9525 28.1318 33.9525H32.0307C32.4097 33.9525 32.7075 33.7089 32.7888 33.3298L32.8429 33.1132C33.1678 31.7053 34.0884 30.1891 35.2797 29.4039L35.6317 29.2144C35.6317 29.2144 35.6588 29.2144 35.6588 29.2414L34.1967 41.0734L35.2797 41.9398C35.2797 41.9398 36.9313 28.8624 36.9584 28.5916C38.2309 27.9418 39.3139 27.0754 40.397 26.1819C40.6948 25.9382 41.0468 26.209 40.9655 26.4527L36.2003 42.7791L37.0667 43.9975L42.4276 25.9382C42.4547 25.8841 42.4547 25.8299 42.4547 25.8299C42.4547 25.8299 42.0486 25.7758 41.859 25.7216C41.832 25.7216 41.7778 25.6946 41.7507 25.6946C41.5883 25.6675 41.4258 25.6404 41.2363 25.6133C41.1822 25.6133 41.1551 25.5863 41.1009 25.5863C40.8843 25.5592 40.6677 25.505 40.4511 25.4509C40.424 25.4509 40.397 25.4509 40.3699 25.4238C40.1804 25.3967 39.9638 25.3426 39.7472 25.2884C39.6659 25.2613 39.6118 25.2613 39.5305 25.2343C39.341 25.1801 39.1244 25.153 38.9078 25.0989C38.8537 25.0989 38.7995 25.0718 38.7454 25.0718C38.4746 25.0177 38.2309 24.9635 37.9331 24.9094C37.8519 24.8823 37.7977 24.8823 37.7165 24.8552L37.0667 24.6928C36.9855 24.6657 36.9042 24.6657 36.823 24.6386C36.5252 24.5574 36.2274 24.5032 35.9024 24.422H35.8754C35.6858 24.3679 35.5234 24.3408 35.3339 24.2866C35.009 24.2054 34.7111 24.1242 34.4133 24.043C34.3862 24.043 34.3321 24.0159 34.305 24.0159C34.1155 23.9617 33.9259 23.9076 33.7364 23.8805C33.6823 23.8534 33.601 23.8534 33.5198 23.8263C32.7346 23.6097 31.8682 23.3661 30.9476 23.0682C29.7293 23.8805 28.3213 24.3408 26.8322 24.3408C23.6102 24.3408 20.7944 22.1748 19.3594 18.9528C18.8991 18.7633 18.4659 18.6008 18.0056 18.4113C17.7349 18.5466 17.4641 18.682 17.1663 18.7903C17.0309 18.8445 16.8955 18.9257 16.7601 18.9799C16.6789 19.0069 16.5977 19.0611 16.5435 19.0882C16.354 19.1694 16.1916 19.2506 16.002 19.3589C15.8396 19.4401 15.5959 19.5214 15.4605 19.6026C15.5688 19.9546 16.1645 21.3625 16.2186 21.5249V21.552C12.2115 22.1206 10.0184 21.9581 9.4227 21.6603V21.6332C9.58516 21.3354 9.99129 20.821 10.8577 20.1982C10.8848 20.1712 10.8848 20.1712 10.9389 20.1441C11.67 19.6297 12.6176 19.034 13.836 18.3842C13.8631 18.3842 13.8901 18.3571 13.9172 18.3571C14.6753 17.951 15.4876 17.5178 16.4352 17.0846C16.5165 17.0575 16.5977 17.0033 16.6518 16.9763C26.9134 12.0486 36.6876 9.88252 41.4529 9.04318C46.7597 8.06847 49.8192 8.14969 50.6044 8.55582V8.5829C50.2795 9.12441 48.7362 10.4782 45.2976 12.2652C45.2164 12.3193 45.0539 12.3735 45.0539 12.3735C44.9456 11.7778 44.7832 11.1821 44.6207 10.6136C44.4853 10.6406 44.35 10.6406 44.2146 10.6677C44.0792 10.6948 43.9438 10.6948 43.8085 10.7219C43.6731 10.7489 43.5377 10.7489 43.4023 10.776C43.2399 10.8031 43.0504 10.8302 42.8879 10.8572C42.7796 10.8843 42.6713 10.8843 42.5359 10.9114C42.2381 10.9655 41.9403 11.0197 41.6154 11.0738C40.5865 11.2634 39.341 11.48 37.9331 11.8049C37.0938 11.9944 36.2003 12.1839 35.2797 12.4276C35.3609 12.9691 35.388 13.5106 35.388 14.0792C35.388 16.0286 34.9277 17.8698 34.1425 19.4131C31.8682 18.8174 29.7293 18.1676 27.8069 17.5178C26.3448 17.0304 24.9911 16.5701 23.7185 16.0828C22.5813 16.516 21.4442 16.9492 20.5507 17.3283C25.6138 19.3048 30.1625 20.7127 33.953 21.7145C34.1425 21.7686 34.3321 21.8228 34.5216 21.8498C34.5487 21.8498 34.6028 21.8769 34.6299 21.8769C34.9277 21.9581 35.2526 22.0394 35.5505 22.1206C35.74 22.1747 35.9295 22.2018 36.092 22.256H36.119C40.1262 23.2307 42.9962 23.691 44.2687 23.8805C45.7308 24.07 47.1117 24.2054 48.303 24.2054C48.5467 24.2054 48.7903 24.2054 49.034 24.1783C51.3625 24.07 52.7163 23.4473 53.0953 22.3101C53.1766 22.0665 53.2036 21.8228 53.1766 21.5791C53.0141 19.7921 50.3878 17.6532 45.3247 15.2164V14.8373C45.9203 14.5395 46.4889 14.2687 47.0304 13.9709C53.2036 10.6948 53.4473 8.85365 53.0953 7.74356C52.3643 5.4963 47.7344 5.57753 42.6442 6.41687H42.6171C39.4493 2.00358 33.8718 -0.758114 27.7257 0.189526C23.529 0.81226 19.8738 3.16782 17.5453 6.52517H17.5182C11.2368 5.4963 7.71695 5.92951 7.12129 7.85186C7.06714 8.01432 7.04007 8.20384 7.01299 8.42045V8.50167C7.01299 9.63884 8.06893 11.3717 13.1862 14.1063C13.7818 14.4312 14.4046 14.729 15.0544 15.0539V15.1893C14.7295 15.3518 14.2692 15.5954 14.215 15.5954C9.80176 17.7885 6.25488 20.2795 6.95884 22.4455C7.31082 23.5827 8.69167 24.2054 11.0202 24.3137C11.2368 24.3137 11.4804 24.3408 11.7512 24.3408C12.9967 24.3408 14.4858 24.2054 16.2186 23.9617M25.5867 48.9794L25.6138 49.1689L25.5596 48.9794C25.1264 49.0065 24.7203 49.0335 24.2871 49.0065L25.9116 54.5569L26.2907 54.6382L26.4261 55.7212L27.7528 56.3168L26.8051 48.8711C26.399 48.9252 25.9928 48.9523 25.5867 48.9794ZM35.7671 48.6545H34.5216L34.4945 48.7899C34.4945 48.7357 34.4945 48.7086 34.5216 48.6545C34.1155 48.6545 33.7364 48.6274 33.3303 48.6274L32.7076 53.7988L33.1678 54.1779L33.8718 55.1797L35.7671 48.6545Z" fill="black"/>
</svg>
