<svg width="25" height="25" viewBox="0 0 25 25" fill="none" xmlns="http://www.w3.org/2000/svg">
<g clip-path="url(#clip0_8_1277)">
<g clip-path="url(#clip1_8_1277)">
<path d="M15.96 14.4H15.17L14.89 14.13C15.87 12.99 16.46 11.51 16.46 9.89999C16.46 6.30999 13.55 3.39999 9.95996 3.39999C6.36996 3.39999 3.45996 6.30999 3.45996 9.89999C3.45996 13.49 6.36996 16.4 9.95996 16.4C11.57 16.4 13.05 15.81 14.19 14.83L14.46 15.11V15.9L19.46 20.89L20.95 19.4L15.96 14.4ZM9.95996 14.4C7.46996 14.4 5.45996 12.39 5.45996 9.89999C5.45996 7.40999 7.46996 5.39999 9.95996 5.39999C12.45 5.39999 14.46 7.40999 14.46 9.89999C14.46 12.39 12.45 14.4 9.95996 14.4Z" fill="black"/>
</g>
</g>
<defs>
<clipPath id="clip0_8_1277">
<rect width="24" height="24" fill="white" transform="translate(0.459961 0.399994)"/>
</clipPath>
<clipPath id="clip1_8_1277">
<rect width="24" height="24" fill="white" transform="translate(0.459961 0.399994)"/>
</clipPath>
</defs>
</svg>
