<svg width="14" height="8" viewBox="0 0 14 8" fill="none" xmlns="http://www.w3.org/2000/svg">
<path fill-rule="evenodd" clip-rule="evenodd" d="M7.94283 7.73377C7.93399 7.73937 7.92546 7.74569 7.91652 7.75108C7.89976 7.76096 7.8823 7.76941 7.86503 7.77838C7.85244 7.78489 7.84015 7.79212 7.82735 7.79813C7.81476 7.80394 7.80165 7.80852 7.78886 7.81392C7.77108 7.82125 7.75331 7.82919 7.73513 7.83561C7.68841 7.85017 7.66475 7.85771 7.64068 7.86362C7.60239 7.87217 7.57375 7.87797 7.5449 7.88215C7.50083 7.88714 7.47462 7.89009 7.44832 7.89132C7.43217 7.89213 7.41602 7.89132 7.39987 7.89132C7.38372 7.89132 7.36757 7.89213 7.35153 7.89132C7.32512 7.89009 7.29882 7.88714 7.27261 7.88378C7.2261 7.87798 7.19746 7.87217 7.16892 7.86545C7.135 7.85771 7.11113 7.85007 7.08736 7.84243C7.04653 7.8293 7.02886 7.82135 7.01099 7.81392C6.99819 7.80852 6.98509 7.80394 6.97239 7.79813C6.9597 7.79223 6.94751 7.785 6.93502 7.77848C6.91765 7.76952 6.90018 7.76106 6.88332 7.75108C6.87428 7.74569 6.86585 7.73937 6.85702 7.73377C6.83721 7.72114 6.81741 7.70872 6.79842 7.69466C6.79019 7.68855 6.78247 7.68153 6.77435 7.67511C6.75566 7.66045 6.73687 7.64578 6.71899 7.62949L1.23186 2.62148C0.817074 2.24305 0.78691 1.59892 1.16442 1.1829C1.54203 0.766994 2.18441 0.736646 2.5992 1.11528L7.39987 5.49709L12.2007 1.11528C12.6154 0.736648 13.2578 0.766996 13.6353 1.1829C13.8126 1.37803 13.8999 1.62346 13.8999 1.86808C13.8999 2.14477 13.7882 2.42055 13.568 2.62148L8.08359 7.62725C8.06298 7.64578 8.04419 7.66045 8.0255 7.67511C8.01737 7.68153 8.00966 7.68855 8.00143 7.69467C7.98244 7.70872 7.96263 7.72114 7.94283 7.73377Z" fill="#F7CC46"/>
</svg>
