<svg width="1161" height="85" viewBox="0 0 1161 85" fill="none" xmlns="http://www.w3.org/2000/svg">
<path d="M7.27684 65.8677C7.99684 65.8677 8.6435 65.9743 9.21684 66.1877C9.79684 66.3943 10.2902 66.6843 10.6968 67.0577C11.1035 67.431 11.4135 67.8777 11.6268 68.3977C11.8468 68.911 11.9568 69.4777 11.9568 70.0977C11.9568 70.631 11.8802 71.1243 11.7268 71.5777C11.5802 72.031 11.3768 72.4643 11.1168 72.8777C10.8568 73.2843 10.5535 73.681 10.2068 74.0677C9.86684 74.4477 9.5035 74.8343 9.11684 75.2277L6.26684 78.1477C6.6335 78.041 6.9935 77.9577 7.34684 77.8977C7.70684 77.831 8.0435 77.7977 8.35684 77.7977H11.0768C11.4102 77.7977 11.6735 77.891 11.8668 78.0777C12.0602 78.2577 12.1568 78.4977 12.1568 78.7977V80.5977H1.91684V79.5977C1.91684 79.4043 1.95684 79.1977 2.03684 78.9777C2.11684 78.7577 2.25684 78.5577 2.45684 78.3777L6.65684 74.1477C7.01684 73.7877 7.33017 73.4443 7.59684 73.1177C7.8635 72.791 8.0835 72.471 8.25684 72.1577C8.43017 71.8377 8.56017 71.521 8.64684 71.2077C8.7335 70.8877 8.77684 70.551 8.77684 70.1977C8.77684 69.6177 8.63684 69.1743 8.35684 68.8677C8.0835 68.5543 7.6635 68.3977 7.09684 68.3977C6.8635 68.3977 6.65017 68.431 6.45684 68.4977C6.2635 68.5643 6.09017 68.6543 5.93684 68.7677C5.7835 68.881 5.65017 69.0143 5.53684 69.1677C5.43017 69.321 5.3435 69.4877 5.27684 69.6677C5.17017 69.9677 5.0335 70.1843 4.86684 70.3177C4.70684 70.451 4.48684 70.5177 4.20684 70.5177C4.14017 70.5177 4.06684 70.5143 3.98684 70.5077C3.9135 70.501 3.83684 70.491 3.75684 70.4777L2.11684 70.1877C2.2235 69.461 2.42684 68.8277 2.72684 68.2877C3.0335 67.7477 3.41017 67.2977 3.85684 66.9377C4.31017 66.5777 4.82684 66.311 5.40684 66.1377C5.98684 65.9577 6.61017 65.8677 7.27684 65.8677ZM24.0584 73.3077C24.0584 74.581 23.9217 75.6843 23.6484 76.6177C23.3751 77.551 22.9951 78.3243 22.5084 78.9377C22.0284 79.551 21.4551 80.0077 20.7884 80.3077C20.1284 80.6077 19.4117 80.7577 18.6384 80.7577C17.8651 80.7577 17.1484 80.6077 16.4884 80.3077C15.8351 80.0077 15.2684 79.551 14.7884 78.9377C14.3084 78.3243 13.9317 77.551 13.6584 76.6177C13.3917 75.6843 13.2584 74.581 13.2584 73.3077C13.2584 72.0343 13.3917 70.931 13.6584 69.9977C13.9317 69.0643 14.3084 68.291 14.7884 67.6777C15.2684 67.0643 15.8351 66.611 16.4884 66.3177C17.1484 66.0177 17.8651 65.8677 18.6384 65.8677C19.4117 65.8677 20.1284 66.0177 20.7884 66.3177C21.4551 66.611 22.0284 67.0643 22.5084 67.6777C22.9951 68.291 23.3751 69.0643 23.6484 69.9977C23.9217 70.931 24.0584 72.0343 24.0584 73.3077ZM20.8584 73.3077C20.8584 72.301 20.7951 71.4777 20.6684 70.8377C20.5417 70.191 20.3717 69.6843 20.1584 69.3177C19.9517 68.951 19.7151 68.701 19.4484 68.5677C19.1817 68.4277 18.9117 68.3577 18.6384 68.3577C18.3651 68.3577 18.0951 68.4277 17.8284 68.5677C17.5684 68.701 17.3351 68.951 17.1284 69.3177C16.9284 69.6843 16.7651 70.191 16.6384 70.8377C16.5184 71.4777 16.4584 72.301 16.4584 73.3077C16.4584 74.321 16.5184 75.1477 16.6384 75.7877C16.7651 76.4277 16.9284 76.9343 17.1284 77.3077C17.3351 77.6743 17.5684 77.9277 17.8284 78.0677C18.0951 78.201 18.3651 78.2677 18.6384 78.2677C18.9117 78.2677 19.1817 78.201 19.4484 78.0677C19.7151 77.9277 19.9517 77.6743 20.1584 77.3077C20.3717 76.9343 20.5417 76.4277 20.6684 75.7877C20.7951 75.1477 20.8584 74.321 20.8584 73.3077ZM30.48 65.8677C31.2 65.8677 31.8466 65.9743 32.42 66.1877C33 66.3943 33.4933 66.6843 33.9 67.0577C34.3066 67.431 34.6166 67.8777 34.83 68.3977C35.05 68.911 35.16 69.4777 35.16 70.0977C35.16 70.631 35.0833 71.1243 34.93 71.5777C34.7833 72.031 34.58 72.4643 34.32 72.8777C34.06 73.2843 33.7566 73.681 33.41 74.0677C33.07 74.4477 32.7066 74.8343 32.32 75.2277L29.47 78.1477C29.8366 78.041 30.1966 77.9577 30.55 77.8977C30.91 77.831 31.2466 77.7977 31.56 77.7977H34.28C34.6133 77.7977 34.8766 77.891 35.07 78.0777C35.2633 78.2577 35.36 78.4977 35.36 78.7977V80.5977H25.12V79.5977C25.12 79.4043 25.16 79.1977 25.24 78.9777C25.32 78.7577 25.46 78.5577 25.66 78.3777L29.86 74.1477C30.22 73.7877 30.5333 73.4443 30.8 73.1177C31.0666 72.791 31.2866 72.471 31.46 72.1577C31.6333 71.8377 31.7633 71.521 31.85 71.2077C31.9366 70.8877 31.98 70.551 31.98 70.1977C31.98 69.6177 31.84 69.1743 31.56 68.8677C31.2866 68.5543 30.8666 68.3977 30.3 68.3977C30.0666 68.3977 29.8533 68.431 29.66 68.4977C29.4666 68.5643 29.2933 68.6543 29.14 68.7677C28.9866 68.881 28.8533 69.0143 28.74 69.1677C28.6333 69.321 28.5466 69.4877 28.48 69.6677C28.3733 69.9677 28.2366 70.1843 28.07 70.3177C27.91 70.451 27.69 70.5177 27.41 70.5177C27.3433 70.5177 27.27 70.5143 27.19 70.5077C27.1166 70.501 27.04 70.491 26.96 70.4777L25.32 70.1877C25.4266 69.461 25.63 68.8277 25.93 68.2877C26.2366 67.7477 26.6133 67.2977 27.06 66.9377C27.5133 66.5777 28.03 66.311 28.61 66.1377C29.19 65.9577 29.8133 65.8677 30.48 65.8677ZM45.8215 74.9377H47.3215V76.6777C47.3215 76.831 47.2682 76.9643 47.1615 77.0777C47.0615 77.191 46.9149 77.2477 46.7215 77.2477H45.8215V80.5977H43.1215V77.2477H37.2615C37.0682 77.2477 36.8915 77.1877 36.7315 77.0677C36.5782 76.9477 36.4815 76.7977 36.4415 76.6177L36.1215 75.0877L42.8615 66.0277H45.8215V74.9377ZM43.1215 71.1377C43.1215 70.9043 43.1282 70.6543 43.1415 70.3877C43.1615 70.1143 43.1882 69.8343 43.2215 69.5477L39.3715 74.9377H43.1215V71.1377Z" fill="white"/>
<path d="M573.277 65.8677C573.997 65.8677 574.644 65.9743 575.217 66.1877C575.797 66.3943 576.29 66.6843 576.697 67.0577C577.104 67.431 577.414 67.8777 577.627 68.3977C577.847 68.911 577.957 69.4777 577.957 70.0977C577.957 70.631 577.88 71.1243 577.727 71.5777C577.58 72.031 577.377 72.4643 577.117 72.8777C576.857 73.2843 576.554 73.681 576.207 74.0677C575.867 74.4477 575.504 74.8343 575.117 75.2277L572.267 78.1477C572.634 78.041 572.994 77.9577 573.347 77.8977C573.707 77.831 574.044 77.7977 574.357 77.7977H577.077C577.41 77.7977 577.674 77.891 577.867 78.0777C578.06 78.2577 578.157 78.4977 578.157 78.7977V80.5977H567.917V79.5977C567.917 79.4043 567.957 79.1977 568.037 78.9777C568.117 78.7577 568.257 78.5577 568.457 78.3777L572.657 74.1477C573.017 73.7877 573.33 73.4443 573.597 73.1177C573.864 72.791 574.084 72.471 574.257 72.1577C574.43 71.8377 574.56 71.521 574.647 71.2077C574.734 70.8877 574.777 70.551 574.777 70.1977C574.777 69.6177 574.637 69.1743 574.357 68.8677C574.084 68.5543 573.664 68.3977 573.097 68.3977C572.864 68.3977 572.65 68.431 572.457 68.4977C572.264 68.5643 572.09 68.6543 571.937 68.7677C571.784 68.881 571.65 69.0143 571.537 69.1677C571.43 69.321 571.344 69.4877 571.277 69.6677C571.17 69.9677 571.034 70.1843 570.867 70.3177C570.707 70.451 570.487 70.5177 570.207 70.5177C570.14 70.5177 570.067 70.5143 569.987 70.5077C569.914 70.501 569.837 70.491 569.757 70.4777L568.117 70.1877C568.224 69.461 568.427 68.8277 568.727 68.2877C569.034 67.7477 569.41 67.2977 569.857 66.9377C570.31 66.5777 570.827 66.311 571.407 66.1377C571.987 65.9577 572.61 65.8677 573.277 65.8677ZM590.058 73.3077C590.058 74.581 589.922 75.6843 589.648 76.6177C589.375 77.551 588.995 78.3243 588.508 78.9377C588.028 79.551 587.455 80.0077 586.788 80.3077C586.128 80.6077 585.412 80.7577 584.638 80.7577C583.865 80.7577 583.148 80.6077 582.488 80.3077C581.835 80.0077 581.268 79.551 580.788 78.9377C580.308 78.3243 579.932 77.551 579.658 76.6177C579.392 75.6843 579.258 74.581 579.258 73.3077C579.258 72.0343 579.392 70.931 579.658 69.9977C579.932 69.0643 580.308 68.291 580.788 67.6777C581.268 67.0643 581.835 66.611 582.488 66.3177C583.148 66.0177 583.865 65.8677 584.638 65.8677C585.412 65.8677 586.128 66.0177 586.788 66.3177C587.455 66.611 588.028 67.0643 588.508 67.6777C588.995 68.291 589.375 69.0643 589.648 69.9977C589.922 70.931 590.058 72.0343 590.058 73.3077ZM586.858 73.3077C586.858 72.301 586.795 71.4777 586.668 70.8377C586.542 70.191 586.372 69.6843 586.158 69.3177C585.952 68.951 585.715 68.701 585.448 68.5677C585.182 68.4277 584.912 68.3577 584.638 68.3577C584.365 68.3577 584.095 68.4277 583.828 68.5677C583.568 68.701 583.335 68.951 583.128 69.3177C582.928 69.6843 582.765 70.191 582.638 70.8377C582.518 71.4777 582.458 72.301 582.458 73.3077C582.458 74.321 582.518 75.1477 582.638 75.7877C582.765 76.4277 582.928 76.9343 583.128 77.3077C583.335 77.6743 583.568 77.9277 583.828 78.0677C584.095 78.201 584.365 78.2677 584.638 78.2677C584.912 78.2677 585.182 78.201 585.448 78.0677C585.715 77.9277 585.952 77.6743 586.158 77.3077C586.372 76.9343 586.542 76.4277 586.668 75.7877C586.795 75.1477 586.858 74.321 586.858 73.3077ZM596.48 65.8677C597.2 65.8677 597.847 65.9743 598.42 66.1877C599 66.3943 599.493 66.6843 599.9 67.0577C600.307 67.431 600.617 67.8777 600.83 68.3977C601.05 68.911 601.16 69.4777 601.16 70.0977C601.16 70.631 601.083 71.1243 600.93 71.5777C600.783 72.031 600.58 72.4643 600.32 72.8777C600.06 73.2843 599.757 73.681 599.41 74.0677C599.07 74.4477 598.707 74.8343 598.32 75.2277L595.47 78.1477C595.837 78.041 596.197 77.9577 596.55 77.8977C596.91 77.831 597.247 77.7977 597.56 77.7977H600.28C600.613 77.7977 600.877 77.891 601.07 78.0777C601.263 78.2577 601.36 78.4977 601.36 78.7977V80.5977H591.12V79.5977C591.12 79.4043 591.16 79.1977 591.24 78.9777C591.32 78.7577 591.46 78.5577 591.66 78.3777L595.86 74.1477C596.22 73.7877 596.533 73.4443 596.8 73.1177C597.067 72.791 597.287 72.471 597.46 72.1577C597.633 71.8377 597.763 71.521 597.85 71.2077C597.937 70.8877 597.98 70.551 597.98 70.1977C597.98 69.6177 597.84 69.1743 597.56 68.8677C597.287 68.5543 596.867 68.3977 596.3 68.3977C596.067 68.3977 595.853 68.431 595.66 68.4977C595.467 68.5643 595.293 68.6543 595.14 68.7677C594.987 68.881 594.853 69.0143 594.74 69.1677C594.633 69.321 594.547 69.4877 594.48 69.6677C594.373 69.9677 594.237 70.1843 594.07 70.3177C593.91 70.451 593.69 70.5177 593.41 70.5177C593.343 70.5177 593.27 70.5143 593.19 70.5077C593.117 70.501 593.04 70.491 592.96 70.4777L591.32 70.1877C591.427 69.461 591.63 68.8277 591.93 68.2877C592.237 67.7477 592.613 67.2977 593.06 66.9377C593.513 66.5777 594.03 66.311 594.61 66.1377C595.19 65.9577 595.813 65.8677 596.48 65.8677ZM612.042 67.3077C612.042 67.521 612.008 67.7143 611.942 67.8877C611.875 68.061 611.768 68.2143 611.622 68.3477C611.482 68.4743 611.295 68.5743 611.062 68.6477C610.828 68.7143 610.548 68.7477 610.222 68.7477H606.742L606.332 71.1577C606.605 71.111 606.868 71.0777 607.122 71.0577C607.375 71.031 607.622 71.0177 607.862 71.0177C608.628 71.0177 609.305 71.1343 609.892 71.3677C610.478 71.601 610.972 71.921 611.372 72.3277C611.772 72.7277 612.072 73.201 612.272 73.7477C612.478 74.2877 612.582 74.8677 612.582 75.4877C612.582 76.2677 612.442 76.981 612.162 77.6277C611.888 78.2677 611.505 78.821 611.012 79.2877C610.518 79.7543 609.928 80.1177 609.242 80.3777C608.562 80.631 607.815 80.7577 607.002 80.7577C606.528 80.7577 606.075 80.7077 605.642 80.6077C605.215 80.5077 604.812 80.3743 604.432 80.2077C604.058 80.0343 603.712 79.8377 603.392 79.6177C603.072 79.391 602.782 79.151 602.522 78.8977L603.482 77.6177C603.582 77.4843 603.698 77.3843 603.832 77.3177C603.965 77.2443 604.108 77.2077 604.262 77.2077C604.462 77.2077 604.648 77.2643 604.822 77.3777C605.002 77.4843 605.195 77.6043 605.402 77.7377C605.615 77.8643 605.862 77.981 606.142 78.0877C606.422 78.1943 606.768 78.2477 607.182 78.2477C607.595 78.2477 607.948 78.181 608.242 78.0477C608.535 77.9077 608.772 77.721 608.952 77.4877C609.138 77.2477 609.272 76.971 609.352 76.6577C609.438 76.3377 609.482 75.9977 609.482 75.6377C609.482 74.931 609.282 74.3943 608.882 74.0277C608.482 73.6543 607.915 73.4677 607.182 73.4677C606.528 73.4677 605.888 73.591 605.262 73.8377L603.342 73.3177L604.582 66.0277H612.042V67.3077Z" fill="white"/>
<path d="M1119.74 65.8677C1120.46 65.8677 1121.1 65.9743 1121.68 66.1877C1122.26 66.3943 1122.75 66.6843 1123.16 67.0577C1123.56 67.431 1123.87 67.8777 1124.09 68.3977C1124.31 68.911 1124.42 69.4777 1124.42 70.0977C1124.42 70.631 1124.34 71.1243 1124.19 71.5777C1124.04 72.031 1123.84 72.4643 1123.58 72.8777C1123.32 73.2843 1123.01 73.681 1122.67 74.0677C1122.33 74.4477 1121.96 74.8343 1121.58 75.2277L1118.73 78.1477C1119.09 78.041 1119.45 77.9577 1119.81 77.8977C1120.17 77.831 1120.5 77.7977 1120.82 77.7977H1123.54C1123.87 77.7977 1124.13 77.891 1124.33 78.0777C1124.52 78.2577 1124.62 78.4977 1124.62 78.7977V80.5977H1114.38V79.5977C1114.38 79.4043 1114.42 79.1977 1114.5 78.9777C1114.58 78.7577 1114.72 78.5577 1114.92 78.3777L1119.12 74.1477C1119.48 73.7877 1119.79 73.4443 1120.06 73.1177C1120.32 72.791 1120.54 72.471 1120.72 72.1577C1120.89 71.8377 1121.02 71.521 1121.11 71.2077C1121.19 70.8877 1121.24 70.551 1121.24 70.1977C1121.24 69.6177 1121.1 69.1743 1120.82 68.8677C1120.54 68.5543 1120.12 68.3977 1119.56 68.3977C1119.32 68.3977 1119.11 68.431 1118.92 68.4977C1118.72 68.5643 1118.55 68.6543 1118.4 68.7677C1118.24 68.881 1118.11 69.0143 1118 69.1677C1117.89 69.321 1117.8 69.4877 1117.74 69.6677C1117.63 69.9677 1117.49 70.1843 1117.33 70.3177C1117.17 70.451 1116.95 70.5177 1116.67 70.5177C1116.6 70.5177 1116.53 70.5143 1116.45 70.5077C1116.37 70.501 1116.3 70.491 1116.22 70.4777L1114.58 70.1877C1114.68 69.461 1114.89 68.8277 1115.19 68.2877C1115.49 67.7477 1115.87 67.2977 1116.32 66.9377C1116.77 66.5777 1117.29 66.311 1117.87 66.1377C1118.45 65.9577 1119.07 65.8677 1119.74 65.8677ZM1136.52 73.3077C1136.52 74.581 1136.38 75.6843 1136.11 76.6177C1135.84 77.551 1135.46 78.3243 1134.97 78.9377C1134.49 79.551 1133.92 80.0077 1133.25 80.3077C1132.59 80.6077 1131.87 80.7577 1131.1 80.7577C1130.33 80.7577 1129.61 80.6077 1128.95 80.3077C1128.3 80.0077 1127.73 79.551 1127.25 78.9377C1126.77 78.3243 1126.39 77.551 1126.12 76.6177C1125.85 75.6843 1125.72 74.581 1125.72 73.3077C1125.72 72.0343 1125.85 70.931 1126.12 69.9977C1126.39 69.0643 1126.77 68.291 1127.25 67.6777C1127.73 67.0643 1128.3 66.611 1128.95 66.3177C1129.61 66.0177 1130.33 65.8677 1131.1 65.8677C1131.87 65.8677 1132.59 66.0177 1133.25 66.3177C1133.92 66.611 1134.49 67.0643 1134.97 67.6777C1135.46 68.291 1135.84 69.0643 1136.11 69.9977C1136.38 70.931 1136.52 72.0343 1136.52 73.3077ZM1133.32 73.3077C1133.32 72.301 1133.26 71.4777 1133.13 70.8377C1133 70.191 1132.83 69.6843 1132.62 69.3177C1132.41 68.951 1132.18 68.701 1131.91 68.5677C1131.64 68.4277 1131.37 68.3577 1131.1 68.3577C1130.83 68.3577 1130.56 68.4277 1130.29 68.5677C1130.03 68.701 1129.8 68.951 1129.59 69.3177C1129.39 69.6843 1129.23 70.191 1129.1 70.8377C1128.98 71.4777 1128.92 72.301 1128.92 73.3077C1128.92 74.321 1128.98 75.1477 1129.1 75.7877C1129.23 76.4277 1129.39 76.9343 1129.59 77.3077C1129.8 77.6743 1130.03 77.9277 1130.29 78.0677C1130.56 78.201 1130.83 78.2677 1131.1 78.2677C1131.37 78.2677 1131.64 78.201 1131.91 78.0677C1132.18 77.9277 1132.41 77.6743 1132.62 77.3077C1132.83 76.9343 1133 76.4277 1133.13 75.7877C1133.26 75.1477 1133.32 74.321 1133.32 73.3077ZM1142.94 65.8677C1143.66 65.8677 1144.31 65.9743 1144.88 66.1877C1145.46 66.3943 1145.95 66.6843 1146.36 67.0577C1146.77 67.431 1147.08 67.8777 1147.29 68.3977C1147.51 68.911 1147.62 69.4777 1147.62 70.0977C1147.62 70.631 1147.54 71.1243 1147.39 71.5777C1147.24 72.031 1147.04 72.4643 1146.78 72.8777C1146.52 73.2843 1146.22 73.681 1145.87 74.0677C1145.53 74.4477 1145.17 74.8343 1144.78 75.2277L1141.93 78.1477C1142.3 78.041 1142.66 77.9577 1143.01 77.8977C1143.37 77.831 1143.71 77.7977 1144.02 77.7977H1146.74C1147.07 77.7977 1147.34 77.891 1147.53 78.0777C1147.72 78.2577 1147.82 78.4977 1147.82 78.7977V80.5977H1137.58V79.5977C1137.58 79.4043 1137.62 79.1977 1137.7 78.9777C1137.78 78.7577 1137.92 78.5577 1138.12 78.3777L1142.32 74.1477C1142.68 73.7877 1142.99 73.4443 1143.26 73.1177C1143.53 72.791 1143.75 72.471 1143.92 72.1577C1144.09 71.8377 1144.22 71.521 1144.31 71.2077C1144.4 70.8877 1144.44 70.551 1144.44 70.1977C1144.44 69.6177 1144.3 69.1743 1144.02 68.8677C1143.75 68.5543 1143.33 68.3977 1142.76 68.3977C1142.53 68.3977 1142.31 68.431 1142.12 68.4977C1141.93 68.5643 1141.75 68.6543 1141.6 68.7677C1141.45 68.881 1141.31 69.0143 1141.2 69.1677C1141.09 69.321 1141.01 69.4877 1140.94 69.6677C1140.83 69.9677 1140.7 70.1843 1140.53 70.3177C1140.37 70.451 1140.15 70.5177 1139.87 70.5177C1139.8 70.5177 1139.73 70.5143 1139.65 70.5077C1139.58 70.501 1139.5 70.491 1139.42 70.4777L1137.78 70.1877C1137.89 69.461 1138.09 68.8277 1138.39 68.2877C1138.7 67.7477 1139.07 67.2977 1139.52 66.9377C1139.97 66.5777 1140.49 66.311 1141.07 66.1377C1141.65 65.9577 1142.27 65.8677 1142.94 65.8677ZM1155.4 71.3677C1155.93 71.3677 1156.45 71.4543 1156.96 71.6277C1157.47 71.801 1157.93 72.0677 1158.34 72.4277C1158.75 72.7877 1159.07 73.2443 1159.32 73.7977C1159.57 74.3443 1159.7 74.991 1159.7 75.7377C1159.7 76.4177 1159.57 77.0643 1159.32 77.6777C1159.07 78.2843 1158.71 78.8177 1158.24 79.2777C1157.78 79.731 1157.22 80.091 1156.57 80.3577C1155.92 80.6243 1155.19 80.7577 1154.4 80.7577C1153.59 80.7577 1152.86 80.631 1152.21 80.3777C1151.56 80.1177 1151.01 79.7577 1150.56 79.2977C1150.11 78.8377 1149.77 78.2877 1149.53 77.6477C1149.3 77.0077 1149.18 76.3043 1149.18 75.5377C1149.18 74.811 1149.32 74.0877 1149.6 73.3677C1149.88 72.6477 1150.29 71.9143 1150.84 71.1677L1154.12 66.7377C1154.27 66.5377 1154.49 66.371 1154.78 66.2377C1155.07 66.0977 1155.41 66.0277 1155.78 66.0277H1158.54L1154.22 71.1877C1154.15 71.261 1154.09 71.3377 1154.02 71.4177C1153.96 71.491 1153.9 71.5643 1153.84 71.6377C1154.07 71.551 1154.32 71.4843 1154.57 71.4377C1154.83 71.391 1155.11 71.3677 1155.4 71.3677ZM1152.16 75.9577C1152.16 76.3177 1152.2 76.641 1152.29 76.9277C1152.38 77.2143 1152.51 77.461 1152.69 77.6677C1152.87 77.8743 1153.1 78.0343 1153.37 78.1477C1153.64 78.2543 1153.97 78.3077 1154.34 78.3077C1154.66 78.3077 1154.96 78.2477 1155.23 78.1277C1155.51 78.0077 1155.75 77.8443 1155.95 77.6377C1156.15 77.4243 1156.31 77.1777 1156.42 76.8977C1156.54 76.611 1156.6 76.301 1156.6 75.9677C1156.6 75.5943 1156.54 75.261 1156.43 74.9677C1156.32 74.6743 1156.17 74.4277 1155.97 74.2277C1155.77 74.0277 1155.53 73.8743 1155.24 73.7677C1154.96 73.661 1154.65 73.6077 1154.3 73.6077C1153.99 73.6077 1153.7 73.6643 1153.44 73.7777C1153.18 73.8843 1152.95 74.041 1152.76 74.2477C1152.57 74.4543 1152.43 74.701 1152.32 74.9877C1152.21 75.2743 1152.16 75.5977 1152.16 75.9577Z" fill="white"/>
<rect x="35.2773" y="11.73" width="1118" height="16.54" fill="white"/>
<rect x="35.2773" y="11.73" width="1118" height="16.54" fill="#0C1C3E"/>
<circle cx="24.46" cy="20" r="19.54" fill="url(#paint0_linear_20_23)"/>
<circle cx="590.46" cy="20" r="19.54" fill="white"/>
<circle cx="590.46" cy="20" r="19.54" fill="#0C1C3E"/>
<circle cx="1136.92" cy="20" r="19.54" fill="white"/>
<circle cx="1136.92" cy="20" r="19.54" fill="#0C1C3E"/>
<defs>
<linearGradient id="paint0_linear_20_23" x1="24.46" y1="0.459961" x2="24.46" y2="39.54" gradientUnits="userSpaceOnUse">
<stop stop-color="#234375"/>
<stop offset="1" stop-color="#19528E"/>
</linearGradient>
</defs>
</svg>
